<svg width="16" height="16" viewBox="0 0 16 16" fill="none" xmlns="http://www.w3.org/2000/svg">
<path id="Star 2" d="M6.35351 0.964511C7.07104 -0.327397 8.92896 -0.327397 9.64649 0.964511C10.0717 1.73012 10.9686 2.10161 11.8106 1.86092C13.2315 1.45477 14.5452 2.76852 14.1391 4.1894C13.8984 5.03145 14.2699 5.92829 15.0355 6.35351C16.3274 7.07104 16.3274 8.92896 15.0355 9.64649C14.2699 10.0717 13.8984 10.9686 14.1391 11.8106C14.5452 13.2315 13.2315 14.5452 11.8106 14.1391C10.9686 13.8984 10.0717 14.2699 9.64649 15.0355C8.92896 16.3274 7.07104 16.3274 6.35351 15.0355C5.92829 14.2699 5.03145 13.8984 4.1894 14.1391C2.76852 14.5452 1.45477 13.2315 1.86092 11.8106C2.10161 10.9686 1.73012 10.0717 0.964511 9.64649C-0.327397 8.92896 -0.327397 7.07104 0.964511 6.35351C1.73012 5.92829 2.10161 5.03145 1.86092 4.1894C1.45477 2.76852 2.76852 1.45477 4.1894 1.86092C5.03145 2.10161 5.92829 1.73012 6.35351 0.964511Z" fill="#FED144"/>
</svg>
